<svg xmlns="http://www.w3.org/2000/svg" viewBox="0 0 13.26 21.77"><defs><style>.cls-1{fill:#d4d4da;}</style></defs><g id="Layer_2" data-name="Layer 2"><g id="Layer_1-2" data-name="Layer 1"><path class="cls-1" d="M11.05,9.38H6.35a.48.48,0,0,1-.41-.22L.09.79a.49.49,0,0,1,0-.52A.48.48,0,0,1,.5,0H5.21a.52.52,0,0,1,.41.21l5.84,8.38a.51.51,0,0,1,0,.52A.52.52,0,0,1,11.05,9.38Zm-4.44-1H10.1L5,1H1.46Z"/><path class="cls-1" d="M13.2,10.59a.49.49,0,0,0-.44-.27H3.33a.51.51,0,0,0-.5.5v2.43a.5.5,0,0,0,.5.5h2L.25,21a.51.51,0,0,0,0,.52.5.5,0,0,0,.45.27h4.7a.51.51,0,0,0,.41-.21l7.4-10.45A.51.51,0,0,0,13.2,10.59Z"/></g></g></svg>